<?xml version="1.0" standalone="no"?>
<!DOCTYPE svg PUBLIC "-//W3C//DTD SVG 20010904//EN"
 "http://www.w3.org/TR/2001/REC-SVG-20010904/DTD/svg10.dtd">
<svg version="1.0" xmlns="http://www.w3.org/2000/svg"
 width="1000.000000pt" height="1000.000000pt" viewBox="0 0 1000.000000 1000.000000"
 preserveAspectRatio="xMidYMid meet">
<metadata>
Created by potrace 1.14, written by Peter Selinger 2001-2017
</metadata>
<g transform="translate(0.000000,1000.000000) scale(0.100000,-0.100000)"
fill="#000000" stroke="none">
<path d="M5018 7342 c-16 -2 -28 -6 -28 -10 0 -4 -26 -8 -58 -9 -78 -3 -186
-10 -189 -13 -4 -3 -11 -5 -63 -14 -81 -14 -349 -93 -360 -106 -3 -3 -12 -6
-20 -6 -8 0 -32 -8 -54 -17 -21 -9 -42 -17 -46 -17 -5 0 -39 -14 -77 -31 -82
-37 -105 -46 -117 -47 -5 0 -12 -4 -15 -10 -3 -5 -41 -26 -83 -47 -43 -21 -78
-41 -78 -45 0 -4 -14 -13 -31 -20 -17 -7 -36 -18 -42 -24 -7 -7 -30 -23 -52
-36 -22 -13 -72 -49 -112 -80 -39 -30 -97 -73 -129 -95 -71 -49 -380 -356
-425 -422 -18 -27 -36 -49 -41 -51 -4 -2 -8 -8 -8 -14 0 -6 -27 -48 -60 -95
-33 -46 -60 -88 -60 -93 0 -5 -8 -14 -17 -19 -10 -6 -13 -11 -8 -11 6 0 6 -3
-1 -8 -5 -4 -20 -24 -33 -44 -12 -21 -28 -38 -33 -38 -6 0 -9 -3 -6 -6 3 -3
-30 -78 -75 -167 -45 -89 -81 -164 -82 -167 0 -3 -3 -9 -7 -15 -6 -10 -69
-211 -72 -230 0 -5 -3 -12 -6 -15 -7 -6 -43 -148 -43 -167 0 -7 -3 -13 -7 -13
-4 0 -6 -10 -5 -22 1 -13 -2 -31 -7 -41 -5 -10 -11 -32 -12 -50 -7 -62 -29
-132 -48 -153 -15 -16 -16 -24 -7 -29 7 -5 10 -4 5 3 -3 6 -1 14 5 18 9 5 10
-8 6 -48 -4 -30 -8 -61 -11 -69 -3 -8 -7 -31 -9 -53 -6 -50 -16 -58 -74 -64
-26 -2 -53 -8 -58 -12 -6 -5 -39 -11 -73 -14 -36 -4 -70 -13 -78 -21 -18 -18
-28 -20 -18 -3 4 7 3 8 -5 4 -6 -4 -28 -10 -49 -12 -20 -3 -38 -9 -40 -14 -2
-6 -16 -10 -31 -10 -15 0 -32 -5 -39 -12 -6 -6 -22 -13 -34 -16 -13 -2 -28 -5
-34 -6 -7 -1 -20 -8 -30 -16 -9 -8 -19 -14 -21 -13 -5 4 -119 -53 -151 -76
-17 -11 -34 -21 -39 -21 -5 0 -43 -34 -84 -76 -41 -42 -94 -97 -118 -121 -31
-32 -46 -55 -47 -77 -6 -76 -32 -145 -91 -238 -13 -21 -23 -44 -23 -51 0 -8
-13 -29 -29 -48 -16 -18 -27 -37 -25 -41 3 -4 1 -8 -5 -8 -13 0 -6 -36 14 -66
17 -26 12 -31 -28 -29 -15 0 -27 -2 -27 -6 0 -3 -19 -10 -42 -15 -37 -8 -43
-13 -46 -38 -3 -26 14 -84 28 -96 3 -3 16 -27 30 -55 14 -27 31 -57 38 -65 42
-48 89 -91 107 -96 50 -14 75 -28 75 -42 0 -8 3 -12 7 -9 3 4 23 -18 43 -48
44 -67 127 -155 145 -155 18 0 28 -30 12 -36 -8 -3 -47 -6 -88 -8 -41 -1 -85
-9 -99 -16 -14 -7 -26 -13 -27 -12 -19 13 -65 -35 -67 -68 -1 -16 1 -30 5 -30
9 0 3 -40 -8 -51 -13 -13 -212 -33 -450 -44 -286 -14 -286 -14 -398 -31 -17
-2 -64 -6 -105 -9 -88 -5 -204 -14 -242 -19 -34 -5 -69 -29 -60 -41 10 -15 40
-16 392 -17 179 0 335 -4 348 -9 14 -5 22 -5 22 2 0 6 5 7 11 3 12 -7 67 -9
409 -19 91 -2 177 -6 193 -8 15 -2 30 0 33 5 3 4 10 5 17 1 18 -11 147 -10
147 2 0 6 3 7 8 0 10 -15 77 -16 737 -16 571 0 798 5 819 18 5 3 6 1 2 -5 -4
-6 1 -11 11 -11 10 0 54 0 98 -1 44 0 91 3 105 6 14 4 77 8 140 9 63 2 117 4
120 5 3 2 9 2 14 1 10 -2 199 -10 336 -15 52 -2 106 -8 120 -13 14 -5 43 -8
65 -5 81 10 375 1 375 -11 0 -5 4 -5 10 -2 26 16 90 18 595 21 297 2 605 6
685 9 144 5 159 5 183 4 13 0 182 9 258 15 25 1 51 6 57 10 6 3 14 2 17 -4 5
-8 11 -8 19 -1 7 6 16 8 19 4 11 -10 67 -11 67 -1 0 5 5 6 11 2 6 -3 68 -8
137 -10 70 -2 168 -7 217 -10 160 -10 180 -10 192 -2 6 5 14 5 18 -2 4 -7 12
-7 25 0 10 6 21 6 24 2 8 -14 617 -18 1286 -9 69 1 131 6 138 10 6 5 12 4 12
0 0 -10 369 -9 565 2 193 10 250 14 250 15 0 3 200 11 322 13 68 1 123 6 123
10 0 5 5 5 12 1 19 -12 68 -13 61 -1 -4 6 -1 7 6 3 19 -12 121 -10 133 2 18
18 -16 49 -52 46 -16 -1 -33 2 -36 7 -3 5 -9 7 -13 5 -4 -3 -40 -8 -78 -11
-57 -5 -73 -3 -86 10 -11 10 -30 15 -55 14 -21 -2 -44 1 -52 6 -9 5 -11 4 -6
-3 4 -7 2 -12 -3 -12 -6 0 -11 3 -11 8 0 4 -33 8 -73 8 -62 1 -162 10 -162 14
0 4 -193 12 -307 14 -69 0 -124 5 -121 9 2 4 -7 5 -21 1 -38 -9 -87 -11 -92
-3 -2 4 -12 6 -22 4 -9 -1 -31 3 -49 10 -17 7 -34 11 -36 8 -10 -10 -46 37
-41 52 7 18 -13 73 -35 95 -11 11 -42 15 -133 16 -64 1 -128 4 -142 8 -24 6
-42 41 -25 52 5 3 7 10 4 15 -4 5 -2 9 4 9 5 0 13 10 16 21 4 12 30 45 59 73
28 28 63 67 78 86 26 33 31 35 92 37 70 2 110 18 151 59 24 24 81 124 70 124
-3 0 1 15 8 33 18 45 13 95 -14 123 -12 13 -26 21 -30 18 -5 -3 -9 -2 -9 3 0
4 -25 8 -55 8 -30 0 -55 3 -55 7 0 5 -6 8 -14 8 -23 0 -29 17 -32 89 -9 195
-12 224 -20 229 -5 4 -10 25 -12 47 -1 22 -7 51 -12 65 -4 14 -18 59 -30 100
-13 41 -26 79 -31 84 -5 6 -9 20 -9 32 0 13 -4 25 -8 28 -5 3 -14 30 -21 60
-13 59 -48 106 -80 106 -11 0 -23 5 -27 11 -5 8 -9 8 -14 -1 -9 -14 -98 -21
-106 -8 -3 4 -10 6 -15 3 -5 -4 -9 -2 -9 3 0 5 -15 15 -32 22 -51 19 -162 74
-169 83 -3 5 -9 8 -13 7 -3 -1 -22 4 -40 11 -23 8 -36 20 -39 36 -2 13 1 23 7
23 8 0 8 3 0 8 -6 4 -12 30 -13 57 -6 120 -14 182 -34 280 -3 11 -8 40 -12 65
-4 25 -9 54 -12 65 -2 11 -6 31 -9 45 -9 43 -35 144 -41 160 -3 8 -8 21 -10
28 -1 6 -5 18 -6 25 -2 6 -7 19 -10 27 -3 8 -16 44 -28 80 -12 36 -32 88 -44
117 -13 28 -21 54 -17 57 3 3 0 6 -6 6 -7 0 -12 5 -12 11 0 6 -22 57 -49 113
-27 55 -50 105 -49 110 0 5 -4 12 -9 15 -5 3 -29 42 -52 86 -35 65 -107 173
-131 195 -3 3 -16 20 -29 38 -13 19 -35 46 -49 60 -13 15 -36 43 -51 62 -46
62 -253 275 -331 340 -85 71 -184 141 -196 139 -4 0 -10 3 -13 8 -10 14 -129
93 -139 93 -6 0 -12 3 -14 8 -1 4 -33 23 -70 42 -38 19 -68 38 -68 43 0 4 -5
5 -10 2 -6 -3 -17 1 -26 9 -9 9 -20 14 -25 11 -5 -4 -9 -2 -9 3 0 6 -22 18
-50 28 -27 10 -50 22 -50 28 0 5 -3 7 -6 3 -4 -3 -20 1 -37 10 -44 22 -167 63
-167 55 0 -4 -4 -2 -8 3 -4 6 -25 15 -47 22 -22 6 -85 25 -141 41 -55 17 -117
33 -137 36 -20 3 -53 9 -73 12 -59 9 -74 13 -83 19 -5 3 -12 1 -15 -4 -4 -5
-18 -6 -34 -2 -15 4 -44 7 -65 7 -20 -1 -37 1 -37 4 0 9 -327 19 -382 12z"/>
<path d="M8376 3027 c3 -10 9 -15 12 -12 3 3 0 11 -7 18 -10 9 -11 8 -5 -6z"/>
</g>
</svg>
